<!-- Generated by IcoMoon.io -->
<svg version="1.1" xmlns="http://www.w3.org/2000/svg" width="36" height="28" viewBox="0 0 36 28">
<title>audio-description</title>
<path d="M7.875 15.531h2.672l-0.016-4.141zM23.906 13.984c0-1.734-1-3.016-3.078-3.016h-0.844v6.062h0.812c1.953 0 3.109-1.422 3.109-3.047zM14.938 8.094l0.016 11.813c0 0.297-0.234 0.531-0.516 0.531h-3.375c-0.281 0-0.516-0.234-0.516-0.531v-0.969h-4.547l-0.859 1.266c-0.094 0.141-0.266 0.234-0.438 0.234h-4.172c-0.438 0-0.688-0.484-0.422-0.828l8.687-11.828c0.094-0.141 0.25-0.219 0.422-0.219h5.187c0.297 0 0.531 0.234 0.531 0.531zM27.859 13.984c0 4.109-3 6.453-7.031 6.453h-4.219c-0.297 0-0.531-0.234-0.531-0.531v-11.813c0-0.297 0.234-0.531 0.531-0.531h4.188c4.062 0 7.063 2.312 7.063 6.422zM30.297 14c0 0 0.063 4.062-2.312 6.453h-0.797c2.125-2.531 2.172-6.469 2.172-6.469s0.031-3.094-2.109-6.406h0.672c2.312 2.641 2.375 6.422 2.375 6.422zM33.172 14c0 0 0.063 4.062-2.328 6.453h-0.797c2.125-2.531 2.172-6.469 2.172-6.469s0.031-3.094-2.094-6.406h0.672c2.312 2.641 2.375 6.422 2.375 6.422zM36 14c0 0 0.063 4.062-2.312 6.453h-0.797c2.109-2.531 2.156-6.469 2.156-6.469s0.031-3.094-2.094-6.406h0.672c2.312 2.641 2.375 6.422 2.375 6.422z"></path>
</svg>
