<?xml version="1.0" encoding="UTF-8"?>
<svg width="211px" height="39px" viewBox="0 0 211 39" version="1.1" xmlns="http://www.w3.org/2000/svg" xmlns:xlink="http://www.w3.org/1999/xlink">
    <!-- Generator: Sketch 49.1 (51147) - http://www.bohemiancoding.com/sketch -->
    <title>next</title>
    <desc>Created with Sketch.</desc>
    <defs></defs>
    <g id="next" stroke="none" stroke-width="1" fill="none" fill-rule="evenodd">
        <path d="M32.1828946,29.0897959 L25.147466,15.6052245 L24.9520374,15.6052245 L25.1865517,29.0897959 L19.9099803,29.0897959 L19.9099803,4.85665306 L24.9129517,4.85665306 L31.6356946,18.3412245 L31.7920374,18.3412245 L31.5575231,4.85665306 L36.8340946,4.85665306 L36.8340946,29.0897959 L32.1828946,29.0897959 Z M55.4481401,29.5588245 C42.2371687,29.9105959 38.914883,26.0801959 38.914883,19.6310531 C38.914883,13.4555102 43.566083,8.76522449 48.8426544,8.76522449 C54.510083,8.76522449 57.1288258,13.1428245 56.425283,20.3736816 L44.5041401,20.6863673 C45.1295116,23.9695673 48.0609401,24.8685388 55.9562544,24.9857959 L55.4481401,29.5588245 Z M47.8264258,13.2600816 C45.7157973,13.2600816 44.5823116,14.3544816 44.386883,17.4813388 C46.1848258,17.4422531 49.038083,17.3249959 51.0705401,17.2859102 C50.953283,14.7062531 50.0543116,13.2600816 47.8264258,13.2600816 Z M70.8180714,29.1679673 L66.8704143,22.5624816 L63.0791,29.0897959 L57.2162428,29.0897959 L63.5090428,19.2011102 L57.1771571,9.42968163 L63.4308714,9.19516735 L67.4176143,15.8788245 L71.2089286,9.31242449 L77.0717857,9.31242449 L70.7789857,19.1620245 L77.1499571,28.9725388 L70.8180714,29.1679673 Z M94.0051456,29.3633959 C84.7418313,29.5979102 81.8104027,27.5263673 81.8104027,22.2497959 L81.8104027,13.4945959 L77.8236598,13.4945959 L78.2926884,9.31242449 L81.8104027,9.31242449 L81.8104027,4.1531102 L87.3214884,3.64499592 L87.3214884,9.31242449 L94.2005741,9.31242449 L94.2005741,13.4945959 L87.3214884,13.4945959 L87.3214884,21.3899102 C87.3214884,24.1649959 89.158517,24.7121959 94.5914313,24.8294531 L94.0051456,29.3633959 Z M109.062391,29.0897959 L101.753363,29.0897959 L102.105134,22.6406531 L109.375077,22.6406531 L109.062391,29.0897959 Z M130.529694,6.57642449 L124.705922,6.57642449 L124.901351,0.908995918 L130.725122,0.908995918 L130.529694,6.57642449 Z M130.686037,26.1583673 C130.686037,32.0993959 127.129237,35.8125388 116.849694,35.9297959 L117.045122,30.7704816 C124.54958,30.6141388 125.135865,30.3405388 125.135865,27.3700245 L125.135865,13.6900245 L117.553237,13.2600816 L117.98318,9.31242449 L130.686037,9.31242449 L130.686037,26.1583673 Z M151.527968,9.03882449 L151.723397,13.7681959 C145.117911,13.2209959 142.733682,13.5727673 142.733682,14.8235102 C142.733682,16.8559673 152.895968,18.2239673 152.895968,23.1487673 C152.895968,26.7837388 149.065568,29.7542531 137.339854,29.3633959 L137.535282,24.6731102 C144.687968,25.0248816 147.072197,24.6731102 147.072197,23.3441959 C147.072197,21.1944816 136.988082,20.3736816 136.988082,15.3707102 C136.988082,11.6966531 140.935739,8.41345306 151.527968,9.03882449 Z" id="&lt;Next.js-/&gt;" fill="#F7DF1E"></path>
        <g id="Group" transform="translate(1.000000, -1.000000)" fill="#596E75">
            <polygon id="Path" points="13.0769633 5.66122449 16.0083918 9.60888163 5.02530612 18.1686531 5.02530612 18.6376816 15.9693061 27.1192816 12.8815347 31.1060245 0.0614204082 20.7092245 0.0614204082 16.1361959"></polygon>
            <polygon id="Path" points="189.124059 0.580081633 193.892516 2.84705306 176.264859 38.3759673 171.496402 36.1089959"></polygon>
            <polygon id="Path" points="196.950448 31.1451102 194.019019 27.1974531 205.002105 18.6376816 205.002105 18.1686531 194.058105 9.68705306 197.145876 5.7003102 209.96599 16.0971102 209.96599 20.6701388"></polygon>
        </g>
    </g>
</svg>