<?xml version="1.0" encoding="UTF-8" standalone="no"?>
<svg width="408px" height="40px" viewBox="0 0 408 40" version="1.1" xmlns="http://www.w3.org/2000/svg" xmlns:xlink="http://www.w3.org/1999/xlink">
    <!-- Generator: Sketch 41.2 (35397) - http://www.bohemiancoding.com/sketch -->
    <title>cli.training</title>
    <desc>Created with Sketch.</desc>
    <defs>
        <linearGradient x1="50%" y1="19.6098664%" x2="50%" y2="169.580078%" id="linearGradient-1">
            <stop stop-color="#CF3980" offset="0%"></stop>
            <stop stop-color="#9C004A" offset="100%"></stop>
        </linearGradient>
    </defs>
    <g id="Page-1" stroke="none" stroke-width="1" fill="none" fill-rule="evenodd">
        <g id="cli.training">
            <path d="M19.2578125,18.5283203 C19.2578125,18.3180338 19.2190756,18.121582 19.1416016,17.9389648 C19.0641275,17.7563477 18.9479166,17.587565 18.7929688,17.4326172 L13.8125,12.4521484 C13.6796875,12.3193359 13.5136719,12.203125 13.3144531,12.1035156 C13.1263022,12.0260416 12.9243164,11.9873047 12.7084961,11.9873047 C12.4926758,11.9873047 12.293457,12.0288086 12.1108398,12.1118164 C11.9282227,12.1948242 11.764974,12.3082681 11.6210938,12.4521484 C11.4661459,12.6070963 11.349935,12.7786459 11.2724609,12.9667969 C11.1949869,13.1438803 11.15625,13.337565 11.15625,13.5478516 C11.15625,13.7581381 11.1949869,13.9573569 11.2724609,14.1455078 C11.3610025,14.3447266 11.4772135,14.516276 11.6210938,14.6601562 L13.9287109,16.9677734 L2.77246094,16.9677734 C2.56217439,16.9677734 2.36572266,17.0092773 2.18310547,17.0922852 C2.00048828,17.175293 1.83447266,17.2887369 1.68505859,17.4326172 C1.53564453,17.5764975 1.41666658,17.7480469 1.328125,17.9472656 C1.26171875,18.124349 1.22851562,18.3180338 1.22851562,18.5283203 C1.22851562,18.7386069 1.26171875,18.9322916 1.328125,19.109375 C1.41666658,19.3085938 1.53564453,19.4801431 1.68505859,19.6240234 C1.83447266,19.7679037 2.00048828,19.8785806 2.18310547,19.9560547 C2.36572266,20.0335287 2.56217439,20.0722656 2.77246094,20.0722656 L13.9287109,20.0722656 L11.6210938,22.3964844 C11.4772135,22.5403647 11.3610025,22.7119141 11.2724609,22.9111328 C11.1949869,23.0882162 11.15625,23.287435 11.15625,23.5087891 C11.15625,23.7190756 11.1949869,23.9127603 11.2724609,24.0898438 C11.349935,24.2669272 11.4661459,24.4384766 11.6210938,24.6044922 C11.764974,24.7483725 11.9282227,24.8590494 12.1108398,24.9365234 C12.293457,25.0139975 12.4926758,25.0527344 12.7084961,25.0527344 C12.9243164,25.0527344 13.1263022,25.0139975 13.3144531,24.9365234 C13.5136719,24.8479819 13.6796875,24.7373047 13.8125,24.6044922 L18.7929688,19.6240234 C18.9257812,19.4801431 19.0419922,19.3085938 19.1416016,19.109375 C19.2190756,18.9322916 19.2578125,18.7386069 19.2578125,18.5283203 Z" id="➜" fill="#596E75"></path>
            <path d="M77.46,23.268 C77.46,27.552 79.194,30.408 84.26,30.408 C86.266,30.408 88.136,29.966 89.632,29.456 L88.884,26.6 C87.796,27.008 86.64,27.28 85.212,27.28 C82.39,27.28 81.37,26.022 81.37,23.268 L81.37,16.4 L88.986,16.4 L88.986,13.306 L81.37,13.306 L81.37,8.75 L78.14,8.75 L77.63,13.306 L73.006,13.476 L73.006,16.4 L77.46,16.4 L77.46,23.268 Z M90.974,21.67 C90.974,27.178 95.02,30.408 100.086,30.408 C102.534,30.408 104.812,29.592 106.614,28.47 L105.288,26.022 C103.758,26.872 102.33,27.382 100.596,27.382 C97.57,27.382 95.258,25.716 94.986,22.724 L107.124,22.724 C107.192,22.316 107.294,21.568 107.294,20.82 C107.294,16.196 104.506,12.898 99.542,12.898 C95.19,12.898 90.974,16.196 90.974,21.67 Z M94.952,20.072 C95.394,17.352 97.4,15.924 99.644,15.924 C102.296,15.924 103.69,17.488 103.69,20.072 L94.952,20.072 Z M111.152,30 L115.096,30 L115.096,20.786 C116.796,17.556 119.04,16.366 121.318,16.366 C122.576,16.366 123.256,16.536 124.344,16.876 L125.16,13.578 C124.174,13.102 123.29,12.898 121.93,12.898 C119.04,12.898 116.524,14.394 114.824,17.08 L114.722,17.08 L114.382,13.306 L111.152,13.306 L111.152,30 Z M126.23,30 L129.936,30 L129.936,18.338 C130.582,16.944 131.16,16.264 132.044,16.264 C132.996,16.264 133.472,16.978 133.472,18.474 L133.472,30 L136.532,30 L136.532,18.338 C137.178,16.944 137.824,16.264 138.708,16.264 C139.66,16.264 140.102,16.978 140.102,18.474 L140.102,30 L143.808,30 L143.808,18.168 C143.808,14.836 142.448,12.898 140.102,12.898 C138.266,12.898 137.11,14.088 136.328,15.686 C135.92,13.85 134.866,12.898 133.268,12.898 C131.364,12.898 130.344,13.986 129.596,15.448 L129.494,15.448 L129.188,13.306 L126.23,13.306 L126.23,30 Z M145.32,16.4 L152.562,16.4 L152.562,30 L156.472,30 L156.472,13.306 L145.32,13.306 L145.32,16.4 Z M154.228,10.382 C155.86,10.382 157.016,9.328 157.016,7.764 C157.016,6.2 155.86,5.112 154.228,5.112 C152.63,5.112 151.44,6.2 151.44,7.764 C151.44,9.328 152.63,10.382 154.228,10.382 Z M163.118,30 L167.062,30 L167.062,18.61 C168.592,17.046 169.714,16.264 171.346,16.264 C173.624,16.264 174.474,17.488 174.474,20.174 L174.474,30 L178.418,30 L178.418,19.664 C178.418,15.346 176.65,12.898 172.808,12.898 C170.258,12.898 168.354,14.224 166.79,15.822 L166.654,15.822 L166.348,13.306 L163.118,13.306 L163.118,30 Z M180.61,25.512 C180.61,28.436 182.922,30.408 186.186,30.408 C188.43,30.408 190.674,29.286 192.442,27.926 L192.544,27.926 L192.85,30 L196.046,30 L196.046,20.106 C196.046,15.448 193.496,12.898 188.872,12.898 C186.016,12.898 183.262,14.02 181.256,15.21 L182.684,17.828 C184.418,16.876 186.288,16.06 188.158,16.06 C190.878,16.06 192,17.454 192.136,19.324 C183.908,19.902 180.61,21.772 180.61,25.512 Z M184.384,25.206 C184.384,23.404 186.152,22.18 192.136,21.772 L192.136,25.308 C190.606,26.532 189.042,27.348 187.376,27.348 C185.71,27.348 184.384,26.702 184.384,25.206 Z M198.476,9.09 L203.746,9.09 L203.746,23.914 C203.746,28.028 205.786,30.408 209.696,30.408 C211.634,30.408 212.824,30 214.422,29.456 L213.504,26.566 C212.382,27.008 211.498,27.212 210.648,27.212 C208.948,27.212 207.656,26.362 207.656,24.118 L207.656,5.996 L198.476,5.996 L198.476,9.09 Z M220.762,26.974 C220.762,28.946 222.19,30.408 224.128,30.408 C226.066,30.408 227.494,28.946 227.494,26.974 C227.494,25.002 226.066,23.54 224.128,23.54 C222.19,23.54 220.762,25.002 220.762,26.974 Z M238.254,23.268 C238.254,27.552 239.988,30.408 245.054,30.408 C247.06,30.408 248.93,29.966 250.426,29.456 L249.678,26.6 C248.59,27.008 247.434,27.28 246.006,27.28 C243.184,27.28 242.164,26.022 242.164,23.268 L242.164,16.4 L249.78,16.4 L249.78,13.306 L242.164,13.306 L242.164,8.75 L238.934,8.75 L238.424,13.306 L233.8,13.476 L233.8,16.4 L238.254,16.4 L238.254,23.268 Z M254.08,30 L258.024,30 L258.024,20.786 C259.724,17.556 261.968,16.366 264.246,16.366 C265.504,16.366 266.184,16.536 267.272,16.876 L268.088,13.578 C267.102,13.102 266.218,12.898 264.858,12.898 C261.968,12.898 259.452,14.394 257.752,17.08 L257.65,17.08 L257.31,13.306 L254.08,13.306 L254.08,30 Z M269.94,25.512 C269.94,28.436 272.252,30.408 275.516,30.408 C277.76,30.408 280.004,29.286 281.772,27.926 L281.874,27.926 L282.18,30 L285.376,30 L285.376,20.106 C285.376,15.448 282.826,12.898 278.202,12.898 C275.346,12.898 272.592,14.02 270.586,15.21 L272.014,17.828 C273.748,16.876 275.618,16.06 277.488,16.06 C280.208,16.06 281.33,17.454 281.466,19.324 C273.238,19.902 269.94,21.772 269.94,25.512 Z M273.714,25.206 C273.714,23.404 275.482,22.18 281.466,21.772 L281.466,25.308 C279.936,26.532 278.372,27.348 276.706,27.348 C275.04,27.348 273.714,26.702 273.714,25.206 Z M288.248,16.4 L295.49,16.4 L295.49,30 L299.4,30 L299.4,13.306 L288.248,13.306 L288.248,16.4 Z M297.156,10.382 C298.788,10.382 299.944,9.328 299.944,7.764 C299.944,6.2 298.788,5.112 297.156,5.112 C295.558,5.112 294.368,6.2 294.368,7.764 C294.368,9.328 295.558,10.382 297.156,10.382 Z M306.046,30 L309.99,30 L309.99,18.61 C311.52,17.046 312.642,16.264 314.274,16.264 C316.552,16.264 317.402,17.488 317.402,20.174 L317.402,30 L321.346,30 L321.346,19.664 C321.346,15.346 319.578,12.898 315.736,12.898 C313.186,12.898 311.282,14.224 309.718,15.822 L309.582,15.822 L309.276,13.306 L306.046,13.306 L306.046,30 Z M323.98,16.4 L331.222,16.4 L331.222,30 L335.132,30 L335.132,13.306 L323.98,13.306 L323.98,16.4 Z M332.888,10.382 C334.52,10.382 335.676,9.328 335.676,7.764 C335.676,6.2 334.52,5.112 332.888,5.112 C331.29,5.112 330.1,6.2 330.1,7.764 C330.1,9.328 331.29,10.382 332.888,10.382 Z M341.778,30 L345.722,30 L345.722,18.61 C347.252,17.046 348.374,16.264 350.006,16.264 C352.284,16.264 353.134,17.488 353.134,20.174 L353.134,30 L357.078,30 L357.078,19.664 C357.078,15.346 355.31,12.898 351.468,12.898 C348.918,12.898 347.014,14.224 345.45,15.822 L345.314,15.822 L345.008,13.306 L341.778,13.306 L341.778,30 Z M362.228,32.414 C362.228,31.632 362.67,30.918 363.86,30.204 C364.506,30.408 365.322,30.476 366.41,30.476 L369.062,30.476 C371.272,30.476 372.428,30.816 372.428,32.108 C372.428,33.536 370.32,34.828 367.056,34.828 C363.962,34.828 362.228,33.91 362.228,32.414 Z M358.964,32.924 C358.964,35.916 361.99,37.378 366.58,37.378 C372.462,37.378 376.202,34.76 376.202,31.462 C376.202,28.572 373.958,27.382 369.64,27.382 L366.24,27.382 C364.166,27.382 363.078,26.906 363.078,25.784 C363.078,25.138 363.452,24.662 364.098,24.254 C364.982,24.56 365.866,24.696 366.648,24.696 C370.388,24.696 373.312,22.758 373.312,19.052 C373.312,17.896 372.768,16.876 372.19,16.196 L376.1,16.196 L376.1,13.306 L369.266,13.306 C368.518,13.034 367.634,12.898 366.648,12.898 C362.976,12.898 359.78,15.074 359.78,18.916 C359.78,20.888 360.732,22.384 361.922,23.2 L361.922,23.336 C360.698,24.186 359.916,25.376 359.916,26.498 C359.916,27.892 360.732,28.776 361.616,29.286 L361.616,29.422 C359.882,30.34 358.964,31.598 358.964,32.924 Z M366.648,22.248 C364.914,22.248 363.486,21.024 363.486,18.916 C363.486,16.876 364.914,15.584 366.648,15.584 C368.382,15.584 369.844,16.876 369.844,18.916 C369.844,21.024 368.382,22.248 366.648,22.248 Z" id="terminal.training" fill="#D69B69"></path>
            <polygon id="▉" fill="url(#linearGradient-1)" points="387.667969 35.5 406.162109 35.5 406.162109 0.8359375 387.667969 0.8359375"></polygon>
            <path d="M54.0458984,17.984375 C53.7027994,18.858724 53.2545572,19.7745767 52.7011719,20.7319336 C52.1477865,21.6892904 51.4339194,22.1679688 50.5595703,22.1679688 C49.5302734,22.1679688 48.2768555,21.0501303 46.7993164,18.8144531 C45.3217773,16.578776 43.6477865,15.4720053 41.7773438,15.4941406 C40.7480469,15.4941406 39.7242838,15.9811197 38.7060547,16.9550781 C37.6878256,17.9290365 36.8577475,19.4397787 36.2158203,21.4873047 L38.4238281,22.7490234 C38.9108072,21.50944 39.375651,20.4884439 39.8183594,19.6860352 C40.2610678,18.8836264 40.9085287,18.4824219 41.7607422,18.4824219 C42.568685,18.4713541 43.2272135,18.784017 43.7363281,19.4204102 C44.2454428,20.0568033 45.1225586,21.1359049 46.3676758,22.6577148 C47.612793,24.1795248 49.0100912,24.9847006 50.5595703,25.0732422 C51.5335287,25.0732422 52.4798178,24.6775717 53.3984375,23.8862305 C54.3170572,23.0948892 55.2522787,21.6145834 56.2041016,19.4453125 L54.0458984,17.984375 Z" id="~" fill="#93A1A1"></path>
        </g>
    </g>
</svg>